<?xml version="1.0" encoding="UTF-8" standalone="no"?>
<!-- Created with Inkscape (http://www.inkscape.org/) -->
<svg xmlns:inkscape="http://www.inkscape.org/namespaces/inkscape" xmlns:rdf="http://www.w3.org/1999/02/22-rdf-syntax-ns#" xmlns="http://www.w3.org/2000/svg" xmlns:xlink="http://www.w3.org/1999/xlink" xmlns:ns1="http://sozi.baierouge.fr" xmlns:cc="http://creativecommons.org/ns#" xmlns:sodipodi="http://sodipodi.sourceforge.net/DTD/sodipodi-0.dtd" xmlns:dc="http://purl.org/dc/elements/1.1/" id="svg2" xml:space="preserve" viewBox="0 0 46.987 24.818" version="1.1" inkscape:version="0.91 r13725">
  <g id="g10" transform="matrix(1.25 0 0 -1.25 0 24.818)">
    <g id="g12">
      <path id="path14" style="fill-rule:evenodd;fill:#755f3b" d="m34.723 13.268c-0.391 0.039-0.985 0.047-1.785 0.028-0.801 0-1.395 0.019-1.786 0.058-0.297 0.02-0.742 0.102-1.336 0.25l-1.507 0.309c-0.204 0.055-0.903 0.148-2.09 0.277-0.446 0.055-1.004 0.067-1.672 0.028-0.746-0.075-1.301-0.122-1.676-0.141-0.465-0.035-0.809-0.195-1.031-0.473-0.203-0.281-0.352-0.426-0.445-0.445l0.14-0.25c0.336-0.484 0.621-0.801 0.863-0.949 0.114-0.074 0.383-0.328 0.809-0.754 0.113-0.129 0.336-0.297 0.668-0.5 0.094-0.113 0.215-0.336 0.363-0.668 0.133-0.262 0.297-0.457 0.504-0.586l1.309-0.895c0.129-0.074 0.363-0.164 0.699-0.277 0.316-0.113 0.547-0.215 0.695-0.305 0.243-0.168 0.567-0.328 0.977-0.476 0.336-0.129 0.527-0.231 0.586-0.305 0.09-0.133 0.129-0.391 0.109-0.781 0-0.317-0.015-0.559-0.055-0.727-0.035-0.316-0.222-0.648-0.558-1.004-0.332-0.39-0.633-0.546-0.891-0.472-0.687 0.148-1.191 0.277-1.508 0.39-0.539 0.168-1.011 0.418-1.421 0.754l-1.254 0.973c-0.055-0.016-0.305-0.027-0.754-0.027-0.446-0.075-0.789-0.243-1.031-0.5-0.016-0.02-0.083-0.149-0.196-0.391-0.09-0.203-0.183-0.297-0.277-0.281-0.074 0.242-0.039 0.519 0.109 0.836 0.207 0.336 0.348 0.586 0.418 0.754 0.133 0.242 0.199 0.539 0.199 0.894-0.093 0.09-0.148 0.164-0.168 0.223-0.707 1.019-1.117 1.66-1.226 1.922-0.113 0.316-0.391 0.734-0.836 1.254-0.856 1.062-1.367 1.832-1.535 2.312l-0.641 0.254c-0.222 0.055-0.574 0.109-1.058 0.168-0.465 0.035-0.821 0.094-1.059 0.168-1.078 0.258-1.898 0.406-2.457 0.445-0.965-0.058-1.68-0.039-2.145 0.055-0.168 0.039-0.39 0.113-0.668 0.223-0.296 0.113-0.519 0.187-0.667 0.222-0.188 0.039-0.411 0.18-0.672 0.418-0.332 0.317-0.883 0.531-1.645 0.641-0.48 0.058-0.918 0.16-1.309 0.308l-0.167 0.055-0.391 0.082c-0.129 0.059-0.223 0.086-0.277 0.086-0.207 0.055-0.457 0.063-0.754 0.027l-0.614-0.054c-0.297-0.059-0.484-0.075-0.558-0.059-0.016 0.094-0.008 0.149 0.027 0.168 0.02 0.02 0.086 0.047 0.195 0.086 0.114 0.035 0.262 0.062 0.45 0.082l0.554 0.195c-0.445 0.168-0.742 0.27-0.89 0.305-0.668 0.188-1.309 0.215-1.922 0.086-0.297-0.074-0.531-0.133-0.699-0.168-0.297-0.059-0.5-0.012-0.614 0.137-0.09 0.113-0.136 0.289-0.136 0.531s0.046 0.418 0.136 0.531c0.504 0.559 0.895 0.863 1.172 0.918 0.278 0.039 0.633 0.012 1.059-0.082 0.262-0.055 0.633-0.14 1.117-0.25-0.336 0.258-0.496 0.574-0.477 0.945 0.075 0.02 0.141-0.007 0.196-0.082 0.039-0.035 0.082-0.093 0.14-0.168 0.075-0.074 0.223-0.128 0.446-0.168 0.519-0.074 0.922-0.156 1.199-0.25 0.262-0.089 0.566-0.23 0.922-0.417 0.203-0.11 0.5-0.278 0.89-0.5 0.297-0.168 0.512-0.309 0.641-0.418 1.098-0.317 1.867-0.52 2.313-0.614 0.613-0.113 1.515-0.195 2.707-0.25 0.109-0.019 0.472-0.039 1.085-0.058 0.446-0.016 0.801-0.063 1.059-0.137 0.129-0.039 0.473-0.16 1.031-0.363 0.41-0.149 0.754-0.243 1.032-0.282 1.32-0.148 2.324-0.175 3.011-0.082l0.25-0.222 1.059-0.168c0.668 0 1.254 0.039 1.758 0.113 0.426 0.035 1.05 0.063 1.867 0.082l2.23 0.25c0.426 0.039 1.106 0 2.036-0.109 2.027-0.207 3.699-0.18 5.019 0.082 0.035 0 0.445 0.121 1.227 0.363 0.5 0.168 0.898 0.211 1.199 0.137 0.332-0.055 0.668-0.324 1.004-0.809 0.203-0.258 0.265-0.687 0.195-1.281-0.019-0.129-0.047-0.344-0.086-0.641-0.035-0.242-0.121-0.418-0.25-0.531-0.297-0.258-0.695-0.363-1.199-0.305-0.574 0.129-1.004 0.215-1.281 0.25z" inkscape:connector-curvature="0"/>
      <path id="path16" style="fill-rule:evenodd;fill:#675333" d="m11.305 15.694c0.257-0.035 0.695-0.137 1.308-0.305 0.278-0.058 0.688-0.242 1.227-0.558-0.074-0.02-0.176-0.02-0.305 0-0.168 0.019-0.269 0.027-0.308 0.027-0.243-0.035-0.473-0.035-0.696 0-0.687 0.039-1.211 0.113-1.562 0.223-0.129 0.039-0.317 0.133-0.559 0.281-0.242 0.149-0.437 0.242-0.582 0.277-0.598 0.094-1.035 0.188-1.312 0.278l-1.559 0.449c-0.969 0.332-1.629 0.473-1.98 0.418-0.336-0.152-0.614-0.215-0.836-0.195-0.114 0-0.282 0.035-0.504 0.109h0.082l0.558 0.195-0.25 0.082 0.223 0.032c0.02 0.148-0.016 0.257-0.109 0.332l0.109-0.055 0.391 0.055c0.464-0.297 0.8-0.391 1.004-0.278l-0.028 0.028 0.278-0.141c0.781-0.465 1.488-0.715 2.117-0.75l1.004-0.027 0.222-0.086c0.45-0.149 1.137-0.278 2.067-0.391z" inkscape:connector-curvature="0"/>
      <path id="path18" style="fill-rule:evenodd;fill:#675333" d="m17.547 13.55-0.055 0.027-0.082 0.027c0.074 0.114 0.082 0.41 0.028 0.891-0.075 0.316-0.122 0.512-0.141 0.586-0.094 0.207-0.231 0.336-0.418 0.39 0.312 0.008 0.617 0.043 0.922 0.114-0.262-0.653-0.344-1.328-0.254-2.035z" inkscape:connector-curvature="0"/>
      <path id="path20" style="fill-rule:evenodd;fill:#675333" d="m21.312 10.456c0.168-0.449 0.418-0.766 0.75-0.949 0.301-0.188 0.512-0.344 0.645-0.473 0.09-0.113 0.137-0.18 0.137-0.195 0.019-0.02-0.008-0.078-0.082-0.168-0.094-0.133-0.242-0.243-0.446-0.336l-0.113-0.055-0.223-0.168-0.027-0.055-0.082-0.086v-0.054l-0.086-0.168-0.109 0.168 0.304 0.336c0.055 0.035 0.297 0.168 0.727 0.39-0.187 0.094-0.328 0.164-0.418 0.223-0.187 0.203-0.336 0.305-0.449 0.305 0.039-0.164 0.019-0.285-0.055-0.36-0.074-0.074-0.176-0.058-0.305 0.055-0.168 0.164-0.3 0.406-0.39 0.723-0.039 0.113-0.067 0.336-0.086 0.668-0.035 0.281-0.09 0.504-0.168 0.671-0.129 0.243-0.313 0.473-0.555 0.696-0.281 0.262-0.492 0.476-0.64 0.64-0.317 0.317-0.485 0.614-0.504 0.895-0.035 0.148 0 0.258 0.113 0.332-0.465 0.465-0.652 0.855-0.559 1.172 0.055 0.148 0.157 0.316 0.305 0.504l0.449-0.586c0.258-0.371 0.399-0.586 0.418-0.641-0.148 0.406-0.261 0.789-0.336 1.141l-0.082 0.445 0.223 0.113-0.223 0.391 0.25 0.027 0.25-0.222 0.559-0.114c-0.129-0.168-0.234-0.285-0.309-0.359-0.109-0.148-0.175-0.301-0.195-0.449-0.035-0.352-0.035-0.695 0-1.031 0.02-0.371 0.121-0.762 0.309-1.168 0.109-0.227 0.296-0.578 0.558-1.063 0.129-0.277 0.278-0.676 0.445-1.195z" inkscape:connector-curvature="0"/>
      <path id="path22" style="fill-rule:evenodd;fill:#675333" d="m21.703 6.718c0.035-0.129 0.102-0.196 0.195-0.196 0.055 0.168 0.211 0.317 0.473 0.446l0.5 0.195c0.133 0.058 0.301 0.18 0.504 0.363 0.074 0.055 0.195 0.113 0.363 0.168 0.035 0.02 0.082 0.094 0.137 0.223 0.074 0.109 0.152 0.187 0.227 0.222 0.074-0.074 0.136-0.203 0.195-0.39 0.035-0.184 0.09-0.317 0.164-0.391 0.223-0.258 0.445-0.371 0.672-0.332 0.015 0.035 0.015 0.082 0 0.137 0.164 0.019 0.453-0.129 0.863-0.445 0.391-0.278 0.688-0.372 0.891-0.278 0.187 0 0.343 0.035 0.476 0.11l-1.312 0.781c-0.352 0.316-0.633 0.613-0.836 0.89 0.351-0.015 0.762-0.164 1.226-0.445 0.633-0.426 1.004-0.66 1.118-0.695 0.074-0.039 0.277-0.102 0.613-0.195 0.258-0.075 0.453-0.161 0.586-0.254 0.148-0.09 0.269-0.278 0.359-0.555-0.797 0.5-1.504 0.891-2.117 1.168-0.352 0.168-0.66 0.269-0.922 0.308l0.727-0.585c0.074-0.055 0.234-0.157 0.472-0.305 0.223-0.149 0.344-0.27 0.364-0.363 0.035-0.188-0.082-0.27-0.364-0.25-0.109 0-0.316 0.035-0.613 0.109-0.242 0.055-0.695 0.234-1.367 0.531-0.297 0.129-0.481 0.223-0.555 0.278-0.039-0.223 0.156-0.493 0.582-0.809 0.074-0.055 0.27-0.148 0.586-0.277 0.297-0.129 0.438-0.262 0.418-0.391-0.371-0.109-0.883 0.086-1.531 0.586-0.317 0.242-0.512 0.402-0.586 0.473-0.184 0.207-0.27 0.418-0.25 0.64-0.02-0.054-0.047-0.148-0.086-0.277-0.055-0.11-0.129-0.156-0.223-0.141v0.699c-0.074-0.355-0.332-0.64-0.781-0.863-0.351-0.094-0.601-0.187-0.75-0.281-0.336-0.332-0.594-0.539-0.781-0.613l-0.028-0.528-0.14-0.058c-0.074 0.242-0.035 0.519 0.113 0.836 0.203 0.336 0.344 0.586 0.418 0.754z" inkscape:connector-curvature="0"/>
      <path id="path24" style="fill-rule:evenodd;fill:#675333" d="m2.715 17.62c-0.387-0.039-0.688-0.047-0.891-0.031-1.023 0.093-1.625 0.179-1.812 0.254 0.039 0.238 0.086 0.398 0.14 0.472l0.278 0.305c0.113-0.035 0.242-0.137 0.39-0.305 0.262-0.222 0.586-0.316 0.977-0.277h0.082c0.168-0.059 0.43-0.113 0.781-0.168 0.242-0.059 0.457-0.141 0.641-0.254 0.058-0.035 0.121-0.082 0.195-0.137 0.074-0.039 0.16-0.039 0.25 0l0.141-0.058c-0.114 0.019-0.278 0.031-0.504 0.031l-0.668 0.168z" inkscape:connector-curvature="0"/>
      <path id="path26" style="fill-rule:evenodd;fill:#675333" d="m14.566 15.139c-0.375 0.149-0.671 0.231-0.894 0.25-0.406 0.036-0.723 0.055-0.945 0.055-0.915 0.371-1.602 0.633-2.067 0.781 0.262 0.114 0.559 0.168 0.895 0.168 0.871-0.054 1.894-0.281 3.066-0.668l0.109-0.031-0.027-0.055-0.137-0.5z" inkscape:connector-curvature="0"/>
      <path id="path28" style="fill-rule:evenodd;fill:#675333" d="m5.367 17.425 0.028-0.141-0.309 0.277 0.281-0.136z" inkscape:connector-curvature="0"/>
      <path id="path30" style="fill-rule:evenodd;fill:#675333" d="m3.051 16.362c-0.02 0.133 0.019 0.207 0.113 0.227v-0.227h-0.113z" inkscape:connector-curvature="0"/>
      <path id="path32" style="fill-rule:evenodd;fill:#675333" d="m16.266 15.444c-0.282 0.035-0.52 0.102-0.727 0.195l-0.668 0.25c0.223 0.243 0.457 0.43 0.699 0.559l0.836-0.25-0.14-0.699v-0.055z" inkscape:connector-curvature="0"/>
      <path id="path34" style="fill-rule:evenodd;fill:#675333" d="m14.566 15.139 0.137 0.5 0.027 0.055c0.075-0.035 0.317-0.176 0.727-0.418 0.277-0.183 0.52-0.289 0.723-0.305v-0.027c-0.297-0.133-0.723-0.105-1.282 0.082l-0.332 0.113z" inkscape:connector-curvature="0"/>
      <path id="path36" style="fill-rule:evenodd;fill:#675333" d="m21.617 13.854c0-0.015 0.028-0.176 0.086-0.472-0.094-0.129-0.195-0.204-0.308-0.223l0.043-0.07-0.071 0.043c-0.055 0.089-0.101 0.257-0.14 0.5-0.055 0.261-0.09 0.457-0.11 0.586-0.074 0.277-0.148 0.484-0.222 0.613l0.363-0.195v0.195c0.035-0.242 0.156-0.567 0.359-0.977z" inkscape:connector-curvature="0"/>
      <path id="path38" style="fill-rule:evenodd;fill:#675333" d="m33.133 14.718 1.476 0.14h0.364c0.593 0 1.168 0.028 1.726 0.082h0.031c-0.132-0.183-0.523-0.277-1.171-0.277-0.747-0.02-1.172-0.055-1.286-0.113 0.168-0.075 0.43-0.09 0.782-0.055 0.429 0.055 0.707 0.074 0.836 0.055 0.707-0.149 1.109-0.278 1.199-0.391-0.332-0.09-0.781-0.137-1.336-0.137h-1.367c-0.242-0.019-0.446-0.027-0.614-0.027-0.335 0.016-0.511 0.074-0.531 0.164-0.035 0.113 0.047 0.215 0.254 0.309-0.726-0.02-1.266-0.04-1.617-0.055-0.688 0.055-1.172 0.035-1.449-0.059 0.035-0.054 0.297-0.148 0.777-0.277 0.262-0.074 0.66-0.141 1.199-0.195-0.687-0.02-1.496 0.019-2.426 0.113-0.554 0.109-0.984 0.195-1.281 0.25-0.652 0.168-1.144 0.269-1.476 0.305-0.168 0.039-0.661 0.074-1.481 0.113-1.148 0.074-2.035 0.035-2.648-0.113-0.223-0.094-0.399-0.157-0.528-0.196-0.187-0.07-0.363-0.097-0.531-0.082-0.183 0.02-0.344 0.094-0.473 0.223-0.128 0.187-0.23 0.336-0.304 0.449v0.027c0.371 0.09 0.992 0.122 1.867 0.082 0.332 0.02 0.844 0.055 1.531 0.114 0.614 0.054 1.125 0.062 1.535 0.027 0.258-0.019 0.782-0.141 1.563-0.363 0.945-0.278 1.699-0.399 2.258-0.363l-0.84 0.25c-0.352 0.207-0.621 0.343-0.805 0.418-0.355 0-0.597 0.046-0.726 0.14 0.371 0.094 0.949 0.055 1.73-0.113 0.481-0.035 0.836-0.043 1.059-0.027-0.114-0.016-0.215-0.075-0.309-0.165-0.109-0.093-0.148-0.179-0.109-0.253 0.222-0.036 0.566-0.016 1.031 0.058 0.148 0 0.363-0.039 0.641-0.113 0.648 0 1.132 0.019 1.449 0.055z" inkscape:connector-curvature="0"/>
      <path id="path40" style="fill-rule:evenodd;fill:#675333" d="m36.449 15.221v0.11l0.336 0.031 0.027-0.141h-0.363z" inkscape:connector-curvature="0"/>
      <path id="path42" style="fill-rule:evenodd;fill:#675333" d="m6.367 17.815c0.485-0.074 0.762-0.066 0.836 0.028 0.02 0 0.047 0.046 0.086 0.136l0.168-0.136 0.809-0.223c-0.707-0.133-1.758-0.059-3.153 0.223l-0.25 0.054c0.336-0.054 0.836-0.082 1.504-0.082z" inkscape:connector-curvature="0"/>
      <path id="path44" style="fill-rule:evenodd;fill:#675333" d="m6.453 18.147c-0.039-0.183-0.195-0.285-0.473-0.304-0.168-0.02-0.402 0.007-0.699 0.082-0.332 0.054-0.574 0.086-0.722 0.086l-0.95 0.414c-0.351 0.168-0.648 0.289-0.89 0.363-0.281 0.074-0.504 0.133-0.672 0.168-0.313 0.094-0.555 0.187-0.723 0.281 0.297 0.055 0.762 0.008 1.395-0.141 0.093-0.113 0.332-0.269 0.722-0.476 0.465-0.258 0.856-0.414 1.172-0.473l1.059-0.109c0.355-0.059 0.57-0.067 0.644-0.031l0.137 0.14z" inkscape:connector-curvature="0"/>
      <path id="path46" style="fill-rule:evenodd;fill:#4c3e26" d="m4.137 17.339c0.093-0.075 0.133-0.184 0.113-0.332l-0.223-0.028c-0.168 0.074-0.382 0.149-0.64 0.223-0.672 0.184-1.313 0.211-1.926 0.082-0.297-0.074-0.527-0.129-0.695-0.168-0.297-0.055-0.5-0.008-0.614 0.141-0.129 0.129-0.175 0.324-0.14 0.586 0.187-0.079 0.789-0.161 1.812-0.254 0.203-0.016 0.504-0.008 0.891 0.031l0.672-0.168c0.222 0 0.39-0.008 0.5-0.027l0.25-0.086z" inkscape:connector-curvature="0"/>
      <path id="path48" style="fill-rule:evenodd;fill:#4c3e26" d="m4.277 17.757c0.223-0.184 0.344-0.325 0.364-0.418l-0.391-0.055-0.113 0.055-0.391 0.14c-0.09-0.039-0.176-0.039-0.25 0-0.074 0.055-0.137 0.102-0.195 0.141-0.184 0.109-0.399 0.195-0.641 0.25-0.351 0.055-0.613 0.109-0.781 0.168l-0.277 0.109c0.316 0.094 0.687 0.121 1.113 0.086l1.031-0.14c0.152-0.055 0.328-0.168 0.531-0.336z" inkscape:connector-curvature="0"/>
      <path id="path50" style="fill-rule:evenodd;fill:#4c3e26" d="m17.438 14.495c0.054-0.481 0.046-0.781-0.028-0.891-0.207 0.055-0.539 0.102-1.004 0.141-0.445 0.035-0.793 0.094-1.031 0.168-1.078 0.258-1.898 0.406-2.457 0.445-0.965-0.058-1.68-0.039-2.145 0.055-0.168 0.039-0.39 0.113-0.668 0.223-0.296 0.113-0.519 0.187-0.667 0.222-0.188 0.039-0.411 0.18-0.672 0.418-0.332 0.317-0.883 0.531-1.645 0.641-0.48 0.058-0.918 0.16-1.309 0.308l-0.167 0.055-0.391 0.082c-0.129 0.059-0.223 0.086-0.277 0.086-0.207 0.055-0.457 0.063-0.754 0.027l-1.059-0.113v0.223l0.473 0.113c0.222-0.074 0.39-0.113 0.504-0.113 0.222-0.016 0.5 0.047 0.836 0.195 0.351 0.059 1.011-0.082 1.98-0.418l1.559-0.445c0.281-0.094 0.714-0.184 1.312-0.278 0.149-0.039 0.344-0.128 0.582-0.281 0.242-0.148 0.43-0.238 0.559-0.277 0.351-0.113 0.875-0.188 1.562-0.223 0.223-0.039 0.453-0.039 0.696 0 0.039 0 0.14-0.012 0.308-0.027 0.129-0.02 0.231-0.02 0.305 0-0.539 0.316-0.945 0.5-1.227 0.558l-0.168 0.028 0.282 0.027c0.222 0 0.539-0.019 0.949-0.055 0.222-0.019 0.519-0.101 0.89-0.25l0.336-0.113c0.555-0.183 0.985-0.215 1.282-0.082l0.082 0.027h-0.082c-0.207 0.02-0.446 0.122-0.727 0.305-0.406 0.242-0.648 0.383-0.723 0.418l-0.113 0.031c-1.172 0.387-2.191 0.614-3.066 0.668l-0.168 0.028c0.148 0.074 0.41 0.093 0.781 0.054l0.754-0.113c0.09-0.016 0.473-0.101 1.14-0.25l1.481-0.473c0.203-0.093 0.445-0.16 0.723-0.195l0.113-0.027c0.109 0 0.277 0.019 0.5 0.054 0.187-0.054 0.324-0.183 0.418-0.39 0.019-0.074 0.066-0.27 0.141-0.586z" inkscape:connector-curvature="0"/>
      <path id="path52" style="fill-rule:evenodd;fill:#4c3e26" d="m7.289 17.979c-0.039-0.09-0.066-0.136-0.082-0.136-0.074-0.094-0.355-0.102-0.836-0.028-0.672 0-1.172 0.028-1.508 0.082l-0.363 0.114h0.059c0.148 0 0.39-0.032 0.722-0.086 0.297-0.075 0.531-0.102 0.699-0.082 0.278 0.015 0.434 0.121 0.473 0.304 0.035 0.114-0.012 0.235-0.141 0.364v0.027l0.977-0.559z" inkscape:connector-curvature="0"/>
      <path id="path54" style="fill-rule:evenodd;fill:#4c3e26" d="m19.445 16.03 0.223-0.391-0.223-0.113-0.113 0.504h0.113z" inkscape:connector-curvature="0"/>
      <path id="path56" style="fill-rule:evenodd;fill:#4c3e26" d="m21.48 8.866c0.129-0.113 0.231-0.129 0.305-0.055 0.074 0.075 0.094 0.196 0.055 0.36 0.113 0 0.262-0.102 0.449-0.305 0.09-0.055 0.231-0.129 0.418-0.223-0.43-0.222-0.672-0.355-0.727-0.39l-0.304-0.336c-0.672 0.949-1.063 1.562-1.172 1.84-0.113 0.316-0.391 0.734-0.836 1.254-0.856 1.062-1.367 1.832-1.535 2.312l-0.586 0.227c-0.09 0.707-0.008 1.382 0.25 2.035l0.195 0.445c0.449-0.039 0.774-0.047 0.977-0.027l-0.196-0.559 0.223-0.277c-0.148-0.188-0.25-0.356-0.305-0.504-0.093-0.317 0.094-0.707 0.559-1.172-0.113-0.074-0.148-0.184-0.113-0.332 0.019-0.281 0.187-0.578 0.504-0.895 0.148-0.164 0.359-0.378 0.64-0.64 0.242-0.223 0.426-0.453 0.555-0.696 0.078-0.167 0.133-0.39 0.168-0.671 0.019-0.332 0.047-0.555 0.086-0.668 0.09-0.317 0.222-0.559 0.39-0.723z" inkscape:connector-curvature="0"/>
      <path id="path58" style="fill-rule:evenodd;fill:#4c3e26" d="m19.445 14.581-0.672 0.863 0.196 0.559 0.363 0.027 0.195-0.949c0.075-0.352 0.188-0.735 0.336-1.141-0.019 0.055-0.16 0.27-0.418 0.641z" inkscape:connector-curvature="0"/>
      <path id="path60" style="fill-rule:evenodd;fill:#4c3e26" d="m33.496 14.468c-0.207-0.09-0.289-0.196-0.254-0.305 0.02-0.094 0.196-0.149 0.531-0.168 0.168 0 0.372 0.008 0.614 0.027h1.367c0.558 0 1.004 0.047 1.336 0.141-0.09 0.113-0.492 0.242-1.199 0.39-0.129 0.02-0.407 0-0.836-0.058-0.352-0.035-0.614-0.016-0.782 0.058 0.114 0.055 0.539 0.094 1.286 0.11 0.648 0 1.039 0.094 1.171 0.281l0.836 0.082-0.031-0.531c-0.015-0.129-0.043-0.344-0.082-0.641-0.035-0.238-0.121-0.418-0.25-0.527-0.297-0.262-0.695-0.363-1.199-0.309-0.574 0.133-1.004 0.215-1.281 0.25-0.391 0.039-0.985 0.047-1.785 0.028-0.801 0-1.395 0.019-1.786 0.058-0.297 0.02-0.742 0.102-1.336 0.25l-1.507 0.309c-0.204 0.055-0.903 0.148-2.09 0.277-0.446 0.055-1.004 0.067-1.672 0.028-0.746-0.075-1.301-0.122-1.676-0.141-0.5-0.055-0.891-0.285-1.168-0.695-0.058 0.296-0.086 0.457-0.086 0.472-0.203 0.41-0.324 0.735-0.359 0.977l-0.031 0.14 0.031-0.027c0.074-0.113 0.176-0.262 0.304-0.449 0.129-0.129 0.29-0.203 0.473-0.223 0.168-0.019 0.344 0.012 0.531 0.082 0.129 0.039 0.305 0.106 0.528 0.196 0.613 0.148 1.496 0.187 2.648 0.113 0.82-0.039 1.313-0.074 1.481-0.113 0.332-0.036 0.824-0.137 1.476-0.305 0.297-0.055 0.727-0.141 1.281-0.25 0.93-0.094 1.739-0.133 2.426-0.113-0.539 0.058-0.937 0.121-1.199 0.195-0.48 0.133-0.742 0.223-0.777 0.277 0.277 0.094 0.761 0.114 1.449 0.059 0.351 0.019 0.891 0.039 1.617 0.055z" inkscape:connector-curvature="0"/>
      <path id="path62" style="fill-rule:evenodd;fill:#4c3e26" d="m36.785 15.362c0.242 0 0.418 0.016 0.527 0.055 0.04 0 0.094 0.019 0.168 0.054 0.055-0.093 0.082-0.195 0.082-0.304l-0.75 0.054-0.027 0.141z" inkscape:connector-curvature="0"/>
      <path id="path64" style="fill-rule:evenodd;fill:#4c3e26" d="m23.43 6.327c-0.055-0.016-0.305-0.027-0.754-0.027-0.446-0.075-0.789-0.243-1.031-0.5-0.129-0.317-0.239-0.52-0.333-0.614l0.028 0.528c0.187 0.074 0.445 0.281 0.781 0.613 0.149 0.094 0.399 0.187 0.754 0.281 0.445 0.223 0.703 0.512 0.781 0.863v-0.695c0.09-0.019 0.164 0.027 0.223 0.137 0.035 0.129 0.062 0.223 0.082 0.277-0.02-0.222 0.066-0.433 0.25-0.64 0.074-0.075 0.269-0.231 0.586-0.473 0.648-0.5 1.16-0.695 1.535-0.586 0.016 0.133-0.121 0.262-0.418 0.391-0.316 0.129-0.512 0.222-0.586 0.277-0.43 0.316-0.625 0.586-0.586 0.809 0.074-0.055 0.258-0.149 0.555-0.278 0.672-0.297 1.125-0.472 1.367-0.531 0.297-0.074 0.504-0.109 0.613-0.109 0.282-0.02 0.403 0.066 0.364 0.25-0.02 0.093-0.141 0.214-0.364 0.363-0.242 0.148-0.398 0.25-0.472 0.305l-0.727 0.585c0.262-0.035 0.567-0.136 0.922-0.304 0.613-0.281 1.316-0.672 2.117-1.172l-0.055-0.391c-0.039-0.316-0.222-0.648-0.558-1.004-0.336-0.39-0.633-0.546-0.891-0.472-0.687 0.148-1.191 0.277-1.508 0.39-0.539 0.164-1.011 0.418-1.421 0.75l-1.254 0.977z" inkscape:connector-curvature="0"/>
      <path id="path66" style="fill-rule:evenodd;fill:#836a41" d="m21.367 13.132 0.082-0.055v-0.031l0.086-0.137c0.336-0.484 0.621-0.801 0.863-0.949 0.114-0.074 0.383-0.328 0.809-0.754 0.113-0.129 0.336-0.297 0.668-0.5 0.094-0.113 0.215-0.336 0.363-0.668 0.133-0.262 0.297-0.457 0.504-0.586l1.309-0.895c0.129-0.089 0.351-0.183 0.668-0.277 0.316-0.094 0.531-0.176 0.64-0.25-0.332-0.074-0.703-0.031-1.113 0.137-0.187 0.074-0.531 0.254-1.031 0.531-0.203 0.113-0.621 0.418-1.254 0.918-0.336 0.336-0.594 0.559-0.781 0.672 0.113-0.168 0.371-0.457 0.781-0.867 0.351-0.352 0.574-0.649 0.668-0.891-0.258 0-0.547 0.121-0.863 0.363-0.336 0.278-0.575 0.485-0.727 0.614-0.297 0.242-0.707 0.75-1.227 1.531-0.015-0.11-0.027-0.285-0.027-0.527-0.371 0.539-0.66 1.085-0.863 1.644-0.262 0.762-0.297 1.375-0.113 1.84l-0.055 0.836c0.113-0.875 0.316-1.442 0.613-1.699z" inkscape:connector-curvature="0"/>
      <path id="path68" style="fill-rule:evenodd;fill:#836a41" d="m21.98 8.112 0.223 0.168 0.531 0.25c0.055-0.316-0.007-0.578-0.195-0.781-0.094-0.129-0.316-0.297-0.668-0.5l0.027 0.363-0.113 0.137 0.195 0.363z" inkscape:connector-curvature="0"/>
      <path id="path70" style="fill-rule:evenodd;fill:#836a41" d="m24.938 7.971 2.421-1.421c-0.129-0.075-0.285-0.11-0.472-0.11h-0.028c-0.129 0.035-0.363 0.149-0.699 0.336l-1 0.473c-0.336 0.129-0.523 0.297-0.558 0.5-0.04 0.262 0.074 0.336 0.336 0.222z" inkscape:connector-curvature="0"/>
      <path id="path72" style="fill-rule:evenodd;fill:#836a41" d="m24.629 15.862 0.113 0.027 2.149-0.136-1.563-0.114c-0.465-0.054-0.988-0.066-1.562-0.027-0.668 0-1.125 0.047-1.368 0.137l0.364 0.031c0.426 0.035 1.05 0.063 1.867 0.082z" inkscape:connector-curvature="0"/>
      <path id="path74" style="fill-rule:evenodd;fill:#836a41" d="m34.973 14.858h-0.364c-1.652 0.129-2.89 0.168-3.707 0.113 1.004 0.09 1.664 0.129 1.981 0.11 1.113 0 1.929 0.047 2.453 0.14l0.359 0.055 1.871-0.113v-0.137l-0.836-0.082h-0.031c-0.554-0.058-1.133-0.086-1.726-0.086z" inkscape:connector-curvature="0"/>
      <path id="path76" style="fill-rule:evenodd;fill:#836a41" d="m36.785 15.362-0.699-0.031-0.641-0.055c-1.004-0.055-1.515-0.082-1.535-0.082-1.074-0.039-2.656 0.055-4.738 0.277-0.891 0.04-1.57 0.133-2.035 0.282l-0.082 0.027c-0.243 0.094-0.399 0.195-0.473 0.305l0.277 0.031c0.426 0.035 1.106 0 2.036-0.113 2.027-0.203 3.699-0.176 5.019 0.082 0.035 0 0.445 0.121 1.227 0.363 0.5 0.168 0.898 0.215 1.199 0.141 0.332-0.059 0.668-0.325 1.004-0.809l0.136-0.309c-0.074-0.035-0.128-0.054-0.168-0.054-0.109-0.039-0.285-0.055-0.527-0.055z" inkscape:connector-curvature="0"/>
      <path id="path78" style="fill-rule:evenodd;fill:#836a41" d="m12.473 16.979c0.113-0.019 0.476-0.039 1.089-0.058 0.446-0.016 0.797-0.063 1.059-0.137l0.918-0.309c-0.203-0.035-0.519-0.035-0.945 0-0.821-0.093-1.434-0.113-1.84-0.054-0.055 0-0.512 0.082-1.367 0.25-0.668-0.02-1.16-0.008-1.477 0.027-0.519 0.113-0.91 0.188-1.172 0.223-0.277 0.019-0.492 0.047-0.64 0.086-0.262 0.035-0.446 0.101-0.559 0.191 0.039 0.152 0.215 0.227 0.531 0.227l0.532 0.082 1.168-0.282c0.613-0.109 1.515-0.191 2.703-0.246z" inkscape:connector-curvature="0"/>
      <path id="path80" style="fill-rule:evenodd;fill:#836a41" d="m10.496 15.944h-0.308c-0.481 0.113-0.844 0.188-1.086 0.227l-1.086 0.027c-0.633 0.035-1.34 0.285-2.121 0.75l-0.278 0.141c-0.113 0.074-0.187 0.14-0.222 0.195l-0.032 0.141 0.032 0.082c0.054 0.074 0.359-0.028 0.917-0.309 0.278-0.164 0.708-0.332 1.282-0.5l0.699-0.109c0.371-0.059 0.574-0.133 0.613-0.227l1.59-0.418z" inkscape:connector-curvature="0"/>
      <path id="path82" style="fill-rule:evenodd;fill:#836a41" d="m3.902 18.065-2.218 0.391c-0.688 0.222-1.039 0.344-1.059 0.363 0.262 0.223 0.484 0.359 0.668 0.418l1.453-0.726c0.422-0.227 0.805-0.375 1.156-0.446z" inkscape:connector-curvature="0"/>
      <path id="path84" style="fill-rule:evenodd;fill:#836a41" d="m6.312 18.538v-0.055c-0.074-0.035-0.148-0.035-0.222 0-0.11 0.074-0.176 0.11-0.195 0.11l-0.418-0.028c-0.649 0-1.293 0.215-1.922 0.645l-0.477 0.25-0.055 0.39c0.075 0.016 0.141-0.011 0.196-0.086 0.039-0.035 0.082-0.089 0.14-0.168 0.075-0.074 0.223-0.128 0.446-0.164 0.519-0.074 0.922-0.16 1.199-0.25 0.168-0.058 0.601-0.273 1.308-0.644z" inkscape:connector-curvature="0"/>
      <path id="path86" style="fill-rule:evenodd;fill:#988150" d="m18.691 16.421c0.129 0 0.289 0.035 0.473 0.109 0.316 0 0.531-0.055 0.641-0.168 0.093-0.074 0.16-0.258 0.195-0.555-0.52 0.036-1.031-0.371-1.531-1.226-0.242-0.371-0.356-0.707-0.336-1.004 0-0.113 0.047-0.27 0.14-0.473 0.094-0.226 0.141-0.383 0.141-0.476-0.336-0.09-0.625-0.035-0.867 0.168-0.129 0.113-0.223 0.187-0.277 0.222-0.055 0.059-0.161 0.075-0.305 0.059-0.242 0-0.43 0.082-0.559 0.25-0.113 0.148-0.242 0.25-0.39 0.305-0.371 0.129-0.578 0.492-0.614 1.086-0.054 0.503 0.11 0.957 0.5 1.367 0.282 0.261 0.625 0.402 1.032 0.418 0.168 0.019 0.382-0.008 0.64-0.082 0.074 0 0.207 0.054 0.391 0.168l0.25-0.059c0.226-0.074 0.383-0.109 0.476-0.109z" inkscape:connector-curvature="0"/>
      <path id="path88" style="fill-rule:evenodd;fill:#847146" d="m17.465 15.081 0.055 0.195 0.082 0.195c-0.036-0.332-0.028-0.621 0.031-0.863 0.015 0 0.043 0.055 0.082 0.168l0.223 0.445c0.316 0.407 0.753 0.77 1.312 1.086l0.305 0.168c0.129-0.039 0.215-0.074 0.25-0.113 0.113-0.09 0.168-0.211 0.168-0.359-0.164 0-0.332-0.028-0.5-0.086 0.043 0.07 0.078 0.113 0.109 0.129l-0.363-0.102-0.223-0.191c-0.164-0.094-0.285-0.215-0.359-0.364l-0.446-0.867-0.253-0.359c0-0.094-0.028-0.149-0.083-0.168-0.148-0.094-0.316-0.067-0.503 0.082l-0.028 0.281c0 0.203 0.047 0.445 0.141 0.723z" inkscape:connector-curvature="0"/>
      <path id="path90" style="fill-rule:evenodd;fill:#847146" d="m17.102 15.362 0.781 0.863-0.082-0.195-0.031-0.027c-0.055-0.039-0.149-0.168-0.278-0.391-0.262-0.613-0.398-0.984-0.418-1.117-0.148-0.332-0.289-0.512-0.418-0.527-0.113 0-0.195 0.027-0.25 0.082l-0.031 0.64c-0.035 0.281-0.043 0.492-0.027 0.641 0.039 0.316 0.14 0.566 0.308 0.754h0.028c-0.094-0.168-0.157-0.364-0.196-0.586-0.109-0.574-0.047-0.836 0.196-0.778 0.039 0 0.093 0.075 0.168 0.223l0.25 0.418z" inkscape:connector-curvature="0"/>
      <path id="path92" style="fill-rule:evenodd;fill:#847146" d="m16.656 16.085-0.195-0.196c-0.242-0.277-0.371-0.464-0.391-0.558-0.019-0.055-0.074-0.344-0.168-0.863-0.257 0.039-0.425 0.101-0.5 0.195v0.055c-0.019 0.187 0 0.39 0.055 0.613 0.039-0.129 0.102-0.223 0.195-0.278 0.075 0.075 0.149 0.215 0.223 0.418 0.074 0.204 0.141 0.344 0.195 0.418 0.075 0.075 0.215 0.149 0.418 0.223 0.184 0.094 0.313 0.176 0.391 0.25-0.113-0.109-0.176-0.203-0.195-0.277h-0.028z" inkscape:connector-curvature="0"/>
      <path id="path94" style="fill-rule:evenodd;fill:#685936" d="m16.656 13.968c0.129 0.015 0.27 0.195 0.418 0.527l-0.027-0.109c0-0.446-0.047-0.7-0.141-0.754-0.074-0.039-0.156-0.039-0.25 0s-0.156 0.093-0.195 0.168l-0.055 0.25c0.055-0.055 0.137-0.082 0.25-0.082z" inkscape:connector-curvature="0"/>
      <path id="path96" style="fill-rule:evenodd;fill:#685936" d="m17.938 14.163 0.363 0.555c-0.11-0.297-0.176-0.52-0.196-0.668l-0.054-0.446c-0.039-0.148-0.141-0.195-0.309-0.14-0.222 0.058-0.351 0.261-0.39 0.613 0.187-0.149 0.355-0.176 0.503-0.082 0.055 0.019 0.083 0.074 0.083 0.168z" inkscape:connector-curvature="0"/>
      <path id="path98" style="fill-rule:evenodd;fill:#685936" d="m15.848 14.05h-0.309c-0.055 0.113-0.101 0.316-0.137 0.613 0.075-0.094 0.243-0.156 0.5-0.195l-0.054-0.418z" inkscape:connector-curvature="0"/>
      <path id="path100" style="fill-rule:evenodd;fill:#685936" d="m19.473 15.917-0.477-0.164 0.223 0.195 0.363 0.098c-0.031-0.016-0.066-0.059-0.109-0.129z" inkscape:connector-curvature="0"/>
      <path id="path102" style="fill-rule:evenodd;fill:#4b3f27" d="m17.605 15.526-0.14-0.445c-0.094-0.278-0.141-0.52-0.141-0.723l0.028-0.281c0.039-0.352 0.168-0.555 0.39-0.613 0.168-0.055 0.27-0.008 0.309 0.14l0.054 0.446c0.02 0.148 0.086 0.371 0.196 0.668l0.336 0.671c0.074 0.149 0.195 0.27 0.359 0.364l0.477 0.164c0.168 0.058 0.332 0.086 0.5 0.086l0.027-0.196c-0.52 0.036-1.031-0.371-1.531-1.226-0.242-0.371-0.356-0.707-0.336-1.004 0-0.113 0.047-0.27 0.14-0.473 0.094-0.226 0.141-0.383 0.141-0.476-0.336-0.09-0.625-0.035-0.867 0.168-0.129 0.113-0.223 0.187-0.277 0.222-0.055 0.059-0.161 0.075-0.305 0.059-0.242 0-0.43 0.082-0.559 0.25-0.113 0.148-0.242 0.25-0.39 0.305-0.223 0.074-0.383 0.214-0.477 0.418h0.309l0.054 0.418c0.094 0.519 0.149 0.808 0.168 0.863 0.02 0.094 0.149 0.281 0.391 0.558l0.195 0.196c-0.168-0.188-0.269-0.438-0.308-0.754-0.016-0.149-0.008-0.36 0.031-0.641l0.027-0.64 0.055-0.25c0.039-0.075 0.101-0.129 0.195-0.168 0.094-0.036 0.176-0.036 0.25 0 0.094 0.058 0.141 0.308 0.141 0.754l0.027 0.109c0.02 0.133 0.156 0.504 0.418 1.117 0.129 0.223 0.223 0.352 0.278 0.391l0.031 0.027 0.109 0.055-0.109-0.137-0.196-0.422z" inkscape:connector-curvature="0"/>
      <path id="path104" style="fill-rule:evenodd;fill:#b79b60" d="m15.57 15.612c0.055 0.109 0.164 0.27 0.332 0.473 0.282 0.261 0.625 0.398 1.032 0.418h0.086l-0.754-0.364c-0.204-0.089-0.383-0.23-0.532-0.418-0.054-0.074-0.109-0.109-0.164-0.109z" inkscape:connector-curvature="0"/>
      <path id="path106" style="fill-rule:evenodd;fill:#b79b60" d="m17.965 16.589 0.531-0.141c-0.594-0.148-1.219-0.484-1.867-1.004-0.02 0.109 0.035 0.25 0.168 0.418 0.055 0.094 0.156 0.215 0.305 0.363l0.222 0.223 0.25-0.027c0.074 0 0.207 0.054 0.391 0.168z" inkscape:connector-curvature="0"/>
      <path id="path108" style="fill-rule:evenodd;fill:#b79b60" d="m18.691 16.421c0.129 0 0.289 0.035 0.473 0.109l0.223-0.027-0.223-0.082c-0.316-0.149-0.641-0.344-0.976-0.586-0.036 0.168 0.121 0.363 0.476 0.586h0.027z" inkscape:connector-curvature="0"/>
      <path id="path110" style="fill-rule:evenodd;fill:#937b55" d="m26.719 6.718c0.242 0.539 0.773 0.808 1.59 0.808 0.425-0.183 0.66-0.297 0.695-0.336 0.094-0.129 0.133-0.387 0.113-0.777 0-0.317-0.019-0.559-0.055-0.727-0.039-0.277-0.187-0.566-0.449-0.863-0.258-0.336-0.519-0.539-0.777-0.613h-0.227l-0.777 0.195c-0.613 0.316-0.652 1.086-0.113 2.313z" inkscape:connector-curvature="0"/>
      <path id="path112" style="fill-rule:evenodd;fill:#937b55" d="m36.004 14.636c-0.074 1.097 0.035 1.746 0.336 1.953 0.332-0.059 0.668-0.328 1.004-0.809 0.203-0.262 0.265-0.687 0.195-1.285-0.019-0.129-0.047-0.344-0.086-0.641-0.035-0.242-0.121-0.418-0.25-0.531-0.094-0.09-0.25-0.176-0.473-0.25-0.41-0.016-0.652 0.504-0.726 1.563z" inkscape:connector-curvature="0"/>
      <path id="path114" style="fill-rule:evenodd;fill:#8b7550" d="m26.859 6.663c0.243 0.539 0.762 0.808 1.563 0.808 0.426-0.187 0.66-0.308 0.695-0.363 0.094-0.113 0.129-0.351 0.113-0.726 0-0.317-0.019-0.555-0.058-0.723-0.035-0.262-0.176-0.547-0.414-0.863-0.262-0.317-0.524-0.512-0.781-0.586h-0.25l-0.754 0.195c-0.614 0.297-0.653 1.051-0.114 2.258z" inkscape:connector-curvature="0"/>
      <path id="path116" style="fill-rule:evenodd;fill:#8b7550" d="m36.031 14.386c-0.074 1.058 0.035 1.699 0.336 1.921 0.278-0.054 0.602-0.316 0.973-0.781 0.242-0.277 0.308-0.695 0.195-1.254-0.015-0.129-0.035-0.332-0.055-0.613-0.035-0.242-0.121-0.418-0.25-0.531-0.128-0.11-0.289-0.192-0.472-0.25-0.41-0.016-0.653 0.484-0.727 1.508z" inkscape:connector-curvature="0"/>
      <path id="path118" style="fill-rule:evenodd;fill:#7f6b49" d="m27.836 7.108-0.086-0.418c-0.129 0-0.203-0.054-0.223-0.168l-0.082-0.39c-0.019-0.11 0-0.36 0.055-0.75 0.484-0.039 0.809 0.062 0.977 0.304 0.113 0.168 0.168 0.344 0.168 0.532l-0.055 0.363c-0.02 0.168-0.012 0.269 0.027 0.305 0.203-0.055 0.317-0.25 0.332-0.586 0.02-0.297-0.015-0.547-0.109-0.75-0.168-0.356-0.606-0.551-1.313-0.586-0.222-0.039-0.398 0.035-0.527 0.222-0.039 0.055-0.086 0.297-0.141 0.723 0 0.336 0.055 0.578 0.168 0.727 0.129 0.148 0.325 0.277 0.586 0.39 0.09 0.055 0.168 0.082 0.223 0.082z" inkscape:connector-curvature="0"/>
      <path id="path120" style="fill-rule:evenodd;fill:#7f6b49" d="m28.031 6.413 0.082-0.086c-0.054-0.223-0.109-0.344-0.168-0.363-0.035-0.016-0.082-0.028-0.136-0.028-0.094 0.02-0.149 0.047-0.168 0.086-0.055 0.074-0.02 0.164 0.109 0.278 0.113 0.093 0.207 0.128 0.281 0.113z" inkscape:connector-curvature="0"/>
      <path id="path122" style="fill-rule:evenodd;fill:#7f6b49" d="m36.758 15.721 0.137-0.332-0.028 0.055c-0.129 0.02-0.195-0.082-0.195-0.305 0-0.336 0.027-0.523 0.086-0.558 0.09-0.039 0.183-0.012 0.277 0.082v0.25l0.027-1.059c0.055-0.222 0.02-0.363-0.113-0.418-0.09-0.054-0.242-0.027-0.445 0.082-0.184 0.114-0.297 0.375-0.332 0.782-0.039 0.464-0.031 0.82 0.027 1.062 0.035 0.203 0.082 0.324 0.137 0.359 0.113 0.059 0.254 0.059 0.422 0z" inkscape:connector-curvature="0"/>
      <path id="path124" style="fill-rule:evenodd;fill:#7f6b49" d="m36.949 15.194 0.113-0.031c0.02-0.203-0.019-0.27-0.113-0.192-0.09 0.055-0.09 0.129 0 0.223z" inkscape:connector-curvature="0"/>
      <path id="path126" style="fill-rule:evenodd;fill:#675333" d="m36.086 15.889 0.223-0.5c0-0.039-0.008-0.046-0.028-0.031-0.183 0.168-0.332 0.27-0.445 0.309l-0.305 0.027c-0.187 0.02-0.707 0-1.562-0.055l0.754 0.082c0.297 0.02 0.75 0.075 1.363 0.168z" inkscape:connector-curvature="0"/>
      <path id="path128" style="fill-rule:evenodd;fill:#675333" d="m26.387 8.057c0.148-0.093 0.351-0.226 0.613-0.39l0.809-0.114 0.109-0.89 0.113-0.477-0.195 0.114-0.445 0.921c-0.465 0.184-0.813 0.332-1.036 0.446-0.242 0.129-0.48 0.332-0.722 0.613-0.09 0.141-0.172 0.246-0.238 0.305 0.058-0.032 0.128-0.059 0.21-0.082l0.782-0.446z" inkscape:connector-curvature="0"/>
      <path id="path130" style="fill-rule:evenodd;fill:#4c3e26" d="m26.441 7.612 0.532-0.168c0.089-0.019 0.238-0.047 0.445-0.086 0.074-0.035 0.141-0.211 0.195-0.527l0.223-0.418c-0.074 0.101-0.231 0.211-0.473 0.332l-0.418 0.25 0.196 0.168c-0.133-0.016-0.289 0.019-0.477 0.113-0.164 0.074-0.332 0.195-0.5 0.363l-0.168 0.196c0.074-0.067 0.223-0.141 0.445-0.223z" inkscape:connector-curvature="0"/>
      <path id="path132" style="fill-rule:evenodd;fill:#4c3e26" d="m36.172 15.456c-0.172 0.094-0.469 0.199-0.895 0.324h0.559c0.219-0.039 0.328-0.144 0.336-0.324z" inkscape:connector-curvature="0"/>
      <path id="path134" style="fill-rule:evenodd;fill:#4c3e26" d="m36.309 14.272 0.476 0.281c-0.262-0.484-0.449-0.781-0.558-0.894l-0.141-0.137h-0.137c-0.375 0-0.672 0.082-0.894 0.25 0.039 0.11 0.297 0.149 0.781 0.11 0.074 0.019 0.16 0.086 0.25 0.195 0.094 0.113 0.168 0.18 0.223 0.195z" inkscape:connector-curvature="0"/>
      <path id="path136" style="fill-rule:evenodd;fill:#4c3e26" d="m26.023 5.268 0.559 0.028c-0.059-0.075-0.168-0.129-0.336-0.168-0.203-0.055-0.332-0.11-0.391-0.164l0.168 0.304z" inkscape:connector-curvature="0"/>
      <path id="path138" style="fill-rule:evenodd;fill:#3f581c" d="m20.645 5.882c-0.766-0.633-1.563-1.012-2.399-1.141-1.023-0.168-1.926 0-2.703 0.5l-0.895 0.809 0.614 0.082c0.593 0.168 1.367 0.5 2.312 1.004 1.36 0.707 2.371 0.875 3.039 0.503 0.317-0.187 0.614-0.464 0.895-0.836-0.207-0.296-0.492-0.605-0.863-0.921z" inkscape:connector-curvature="0"/>
      <path id="path140" style="fill-rule:evenodd;fill:#3a5019" d="m16.934 5.964 0.531 0.195c0.039-0.129 0.055-0.203 0.055-0.223 0-0.035-0.102-0.148-0.305-0.332l-0.309-0.195c-0.109 0.035-0.183 0.082-0.222 0.137-0.094 0.148-0.008 0.289 0.25 0.418z" inkscape:connector-curvature="0"/>
      <path id="path142" style="fill-rule:evenodd;fill:#3a5019" d="m17.605 6.55c-0.132 0.093 0.016 0.296 0.446 0.613l0.89 0.558c0.391 0.11 0.782 0.149 1.172 0.11l-0.39-0.137c-0.055-0.039-0.129-0.121-0.223-0.25-0.074-0.074-0.113-0.133-0.113-0.168 0-0.074 0.16-0.113 0.476-0.113h0.028l-0.086-0.055 0.113-0.055 0.18 0.028-0.321-0.195-0.25-0.25-0.14-0.25c-0.258-0.317-0.285-0.551-0.082-0.7 0.168-0.148 0.398-0.156 0.695-0.027 0.336 0.129 0.539 0.215 0.613 0.25l0.672 0.586c-0.484-0.484-0.883-0.828-1.199-1.031l-0.586-0.25h-0.055l-0.754-0.086-1.394 0.14c0.094 0.149 0.16 0.262 0.195 0.336l0.473 0.668 0.586 0.196 0.222 0.109-0.027-0.027-0.109-0.137c-0.188-0.133-0.344-0.27-0.477-0.418-0.015-0.039-0.062-0.102-0.137-0.195-0.019-0.055 0.008-0.129 0.082-0.223l0.141 0.195c0 0.074 0.074 0.184 0.223 0.332l-0.114-0.332c0.188 0.223 0.29 0.36 0.309 0.418 0.184 0.238 0.418 0.453 0.695 0.641h-0.027l0.082 0.055c-0.035 0.039-0.074 0.039-0.109 0l-0.586 0.335 0.027-0.14-0.055 0.055-0.168 0.113c-0.093-0.059-0.066-0.141 0.082-0.25 0.133-0.113 0.235-0.16 0.309-0.141l0.027 0.028 0.082-0.028-0.25-0.086c-0.257-0.074-0.464-0.129-0.613-0.164-0.277-0.113-0.461-0.133-0.555-0.058z" inkscape:connector-curvature="0"/>
      <path id="path144" style="fill-rule:evenodd;fill:#324516" d="m17.297 5.268 1.394-0.14 0.754 0.086h0.055c-0.559-0.188-1.031-0.278-1.422-0.278-0.262 0-0.527 0.028-0.808 0.082-0.04 0.094-0.028 0.176 0.027 0.25z" inkscape:connector-curvature="0"/>
      <path id="path146" style="fill-rule:evenodd;fill:#324516" d="m15.652 6.159c-0.019 0.019-0.019 0.059 0 0.113 0.688 0.262 1.328 0.547 1.922 0.864 0.578 0.281 1.035 0.476 1.367 0.585l-0.89-0.558c-0.43-0.317-0.578-0.52-0.449-0.613 0.093-0.075 0.281-0.055 0.558 0.058 0.149 0.035 0.352 0.09 0.613 0.164l0.25 0.086 0.032-0.027-0.282-0.25-0.222-0.113-0.582-0.196 0.054 0.114-0.281 0.027c-0.148-0.039-0.242-0.102-0.277-0.195v-0.059l-0.531-0.195c-0.262-0.129-0.344-0.27-0.25-0.418 0.035-0.055 0.113-0.102 0.222-0.137l-0.39-0.168-1.336 0.559 1.226 0.277c0.297 0.055 0.594 0.148 0.891 0.277-1.024-0.203-1.57-0.269-1.645-0.195z" inkscape:connector-curvature="0"/>
      <path id="path148" style="fill-rule:evenodd;fill:#324516" d="m18.746 6.55 0.309 0.281 0.082-0.028 0.14 0.028h0.082c-0.277-0.188-0.511-0.403-0.695-0.645-0.019-0.054-0.121-0.195-0.309-0.414l0.114 0.332 0.027 0.055 0.223 0.309-0.082-0.055 0.109 0.137z" inkscape:connector-curvature="0"/>
      <path id="path150" style="fill-rule:evenodd;fill:#324516" d="m19.359 6.858-0.082-0.027-0.14-0.028-0.082 0.028-0.028 0.027-0.086 0.028 0.028 0.054-0.223 0.141-0.027 0.14 0.64-0.363z" inkscape:connector-curvature="0"/>
      <path id="path152" style="fill-rule:evenodd;fill:#324516" d="m20.727 7.081h-0.028c-0.113 0.035-0.297 0.035-0.558 0l-0.223-0.028-0.113 0.055 0.086 0.055v0.031c0.054 0.035 0.148 0.063 0.277 0.082 0.094 0.02 0.187 0.02 0.281 0 0.258-0.113 0.406-0.203 0.446-0.281l-0.168 0.086z" inkscape:connector-curvature="0"/>
      <path id="path154" style="fill-rule:evenodd;fill:#324516" d="m17.742 6.413 0.281-0.031-0.054-0.11-0.477-0.668c-0.035-0.078-0.101-0.187-0.195-0.336-0.055-0.074-0.063-0.156-0.027-0.25l-0.754 0.223 0.39 0.168 0.309 0.195c0.203 0.184 0.305 0.297 0.305 0.332 0 0.02-0.02 0.094-0.055 0.223v0.055c0.035 0.097 0.129 0.16 0.277 0.199z" inkscape:connector-curvature="0"/>
      <path id="path156" style="fill-rule:evenodd;fill:#3a5019" d="m20.586 7.081h0.141c-0.075-0.02-0.168-0.113-0.278-0.278-0.133-0.261-0.242-0.437-0.336-0.531l0.055 0.25 0.336 0.531h-0.027l0.109 0.028z" inkscape:connector-curvature="0"/>
      <path id="path158" style="fill-rule:evenodd;fill:#46611f" d="m21.508 6.803-0.223-0.281-0.195-0.082-0.223-0.027c-0.113-0.059-0.187-0.086-0.222-0.086-0.114-0.055-0.18-0.047-0.196 0.027-0.019 0.039 0.016 0.121 0.11 0.254 0.074 0.11 0.132 0.176 0.168 0.195 0.019 0 0.093 0.008 0.222 0.028 0.094 0.015 0.149 0.055 0.168 0.109 0 0.094-0.066 0.176-0.195 0.25-0.02 0.039-0.102 0.106-0.25 0.196-0.188 0.132-0.27 0.226-0.254 0.281l0.059 0.054 0.136-0.082c0.317-0.187 0.614-0.464 0.895-0.836z" inkscape:connector-curvature="0"/>
      <path id="path160" style="fill-rule:evenodd;fill:#46611f" d="m20.504 7.053-0.336-0.531-0.168-0.332-0.055-0.195c-0.129 0.074-0.203 0.164-0.222 0.277 0 0.094 0.047 0.203 0.14 0.336 0.094 0.149 0.196 0.258 0.305 0.332 0.133 0.133 0.234 0.168 0.309 0.113h0.027z" inkscape:connector-curvature="0"/>
      <path id="path162" style="fill-rule:evenodd;fill:#46611f" d="m20.141 7.581 0.195-0.11v-0.054c-0.262 0-0.41 0.035-0.445 0.109-0.059 0.055-0.028 0.113 0.082 0.168 0.074 0 0.132-0.039 0.168-0.113z" inkscape:connector-curvature="0"/>
      <path id="path164" style="fill-rule:evenodd;fill:#3f581c" d="m18.719 6.468-0.223-0.309-0.027-0.055c-0.149-0.148-0.223-0.258-0.223-0.332l-0.141-0.195c-0.074 0.09-0.101 0.164-0.082 0.223 0.075 0.089 0.122 0.156 0.137 0.195 0.133 0.148 0.289 0.285 0.477 0.418l0.082 0.055z" inkscape:connector-curvature="0"/>
      <path id="path166" style="fill-rule:evenodd;fill:#3f581c" d="m18.746 7.081 0.223-0.141-0.028-0.054-0.027-0.028c-0.074-0.019-0.176 0.028-0.305 0.137-0.148 0.113-0.179 0.195-0.086 0.254l0.168-0.113 0.055-0.055z" inkscape:connector-curvature="0"/>
      <path id="path168" style="fill-rule:evenodd;fill:#1e2a0e" d="m17.297 6.354c-0.297-0.129-0.594-0.222-0.891-0.277l-1.226-0.281 1.336-0.555 0.754-0.223c0.277-0.058 0.546-0.082 0.808-0.082 0.391 0 0.863 0.09 1.422 0.278l0.586 0.25c-0.559-0.371-1.172-0.614-1.84-0.723-1.023-0.168-1.926 0-2.707 0.5l-0.891 0.809h0.223c0.207 0.035 0.465 0.109 0.781 0.222-0.019-0.054-0.019-0.094 0-0.113 0.075-0.074 0.621-0.008 1.645 0.195z" inkscape:connector-curvature="0"/>
      <path id="path170" style="fill-rule:evenodd;fill:#3f581c" d="m22.094 6.55-0.168-2.036c-0.278-1.523-0.848-2.664-1.699-3.425-0.821-0.727-1.793-1.09-2.93-1.09l-1.449 0.254 0.39 0.472c0.336 0.559 0.66 1.414 0.977 2.563 0.594 2.195 1.496 3.367 2.703 3.515 0.633 0.09 1.355 0.008 2.176-0.253z" inkscape:connector-curvature="0"/>
      <path id="path172" style="fill-rule:evenodd;fill:#3a5019" d="m18.355 1.925c0.075-0.133 0.086-0.317 0.028-0.559l-0.082-0.418c-0.149-0.039-0.262-0.027-0.332 0.027-0.207 0.094-0.27 0.278-0.196 0.559l0.165 0.359 0.167 0.227c0.055-0.059 0.141-0.121 0.25-0.195z" inkscape:connector-curvature="0"/>
      <path id="path174" style="fill-rule:evenodd;fill:#3a5019" d="m21.312 3.483c0.297 0.485 0.454 0.774 0.473 0.867 0.074 0.184 0.149 0.5 0.223 0.946l0.054 0.558c-0.035-0.929-0.195-1.785-0.472-2.566-0.149-0.313-0.297-0.567-0.445-0.75l-0.809-0.727-1.563-0.781-0.332 1.59c0.164 0.187 0.305 0.41 0.418 0.668l0.11 0.336v-0.082l0.031-0.281c-0.094-0.262-0.121-0.532-0.086-0.809 0.02-0.074 0.035-0.195 0.055-0.363 0.058-0.075 0.16-0.129 0.308-0.164l-0.054 0.304c-0.02 0.035-0.059 0.223-0.114 0.559 0.055-0.149 0.141-0.297 0.25-0.445-0.054 0.109-0.082 0.343-0.082 0.695-0.074 0.371-0.054 0.836 0.055 1.394l-0.055-0.027 0.055 0.137-0.137-0.11c-0.429-0.074-0.754-0.113-0.976-0.113l0.195-0.109h-0.418c-0.019-0.133 0.09-0.203 0.332-0.223 0.242-0.039 0.41-0.019 0.504 0.055l-0.031 0.082h0.14l-0.195-0.278c-0.039-0.054-0.176-0.296-0.418-0.726-0.203-0.317-0.371-0.473-0.5-0.473-0.226 0-0.289 0.352-0.195 1.059 0.015 0.297 0.074 0.605 0.164 0.918l0.141 0.558c0.316 0.594 0.695 1.043 1.144 1.34-0.148-0.168-0.25-0.371-0.309-0.613-0.015-0.074 0-0.254 0.059-0.531l0.027-0.336c0.149-0.203 0.371-0.11 0.668 0.281l0.028 0.027v-0.113h0.168l0.195 0.227c-0.094-0.203-0.148-0.399-0.168-0.586l-0.027-0.559 0.113-0.445c0.016-0.203 0.074-0.399 0.164-0.586 0.133-0.223 0.281-0.344 0.449-0.36 0.332-0.039 0.621 0.149 0.863 0.555z" inkscape:connector-curvature="0"/>
      <path id="path176" style="fill-rule:evenodd;fill:#324516" d="m19.25 4.378 0.055 0.082-0.028-0.055-0.027-0.027z" inkscape:connector-curvature="0"/>
      <path id="path178" style="fill-rule:evenodd;fill:#324516" d="m20.336 1.811 0.809 0.727c-0.411-0.617-0.836-1.063-1.282-1.34-0.168-0.113-0.457-0.242-0.867-0.391-0.09 0.02-0.164 0.094-0.223 0.223l1.563 0.781z" inkscape:connector-curvature="0"/>
      <path id="path180" style="fill-rule:evenodd;fill:#324516" d="m18.746 3.846 0.195 0.278 0.059 0.031c-0.039-0.242-0.047-0.418-0.031-0.531l-0.11-0.336c-0.113-0.258-0.25-0.481-0.418-0.668l-0.031 0.141-0.305-0.168c-0.109-0.149-0.14-0.29-0.082-0.418l0.082-0.055-0.167-0.223-0.168-0.363c-0.075-0.281-0.008-0.465 0.195-0.559 0.074-0.054 0.187-0.062 0.336-0.027l-0.196-0.391-1.617-0.222 0.723 1.004c0.207 0.242 0.375 0.527 0.504 0.863-0.668-0.856-1.07-1.262-1.199-1.227-0.039 0-0.075 0.028-0.114 0.082 0.282 0.539 0.551 1.286 0.809 2.231 0.187 0.742 0.43 1.375 0.727 1.898l-0.141-0.558c-0.094-0.317-0.149-0.621-0.168-0.922-0.09-0.707-0.027-1.059 0.195-1.059 0.133 0 0.301 0.16 0.504 0.477 0.242 0.426 0.383 0.668 0.418 0.722z" inkscape:connector-curvature="0"/>
      <path id="path182" style="fill-rule:evenodd;fill:#324516" d="m19.25 4.378 0.027 0.027 0.055 0.027c-0.109-0.558-0.129-1.023-0.055-1.394 0-0.352 0.028-0.586 0.082-0.695-0.109 0.148-0.195 0.296-0.25 0.445v0.082c-0.019 0.242-0.047 0.418-0.082 0.531l-0.031-0.14-0.027 0.281v0.082c-0.02 0.113-0.008 0.289 0.027 0.531h0.113l0.141 0.223z" inkscape:connector-curvature="0"/>
      <path id="path184" style="fill-rule:evenodd;fill:#324516" d="m18.941 4.124h-0.136v0.086h-0.391l-0.199 0.109c0.226 0 0.551 0.039 0.976 0.113l0.114 0.028-0.196-0.305h-0.113l-0.055-0.031z" inkscape:connector-curvature="0"/>
      <path id="path186" style="fill-rule:evenodd;fill:#324516" d="m20.141 6.077c0.39 0.148 0.687 0.184 0.89 0.109-0.054 0-0.164-0.027-0.332-0.082h-0.027c-0.227-0.109-0.465-0.316-0.727-0.613l-0.222-0.25h-0.168v0.168c0.054 0.148 0.14 0.277 0.25 0.387 0.093 0.152 0.207 0.246 0.336 0.281z" inkscape:connector-curvature="0"/>
      <path id="path188" style="fill-rule:evenodd;fill:#324516" d="m18.023 2.175c-0.054 0.128-0.027 0.269 0.082 0.418l0.305 0.164 0.363-1.727c0.059-0.133 0.133-0.203 0.223-0.223-0.238-0.093-0.539-0.179-0.891-0.25l0.196 0.391 0.082 0.418c0.058 0.242 0.047 0.426-0.028 0.555-0.109 0.074-0.195 0.14-0.25 0.195l-0.082 0.059z" inkscape:connector-curvature="0"/>
      <path id="path190" style="fill-rule:evenodd;fill:#3a5019" d="m20.672 6.104h0.027c-0.074-0.109-0.086-0.332-0.027-0.668 0.09-0.613 0.137-0.965 0.137-1.058-0.055 0.054-0.121 0.175-0.196 0.363l-0.027 0.332c-0.035 0.336-0.082 0.578-0.141 0.727h-0.027l0.113 0.164 0.141 0.14z" inkscape:connector-curvature="0"/>
      <path id="path192" style="fill-rule:evenodd;fill:#46611f" d="m22.094 6.55v-0.641l-0.196-0.359-0.25-0.282-0.195-0.332c-0.152-0.152-0.254-0.195-0.308-0.14-0.055 0.035-0.102 0.183-0.141 0.445-0.016 0.262-0.008 0.43 0.031 0.504 0.016 0.016 0.09 0.101 0.223 0.25 0.109 0.109 0.148 0.211 0.109 0.305-0.019 0.074-0.195 0.148-0.531 0.222-0.184 0.02-0.371 0.02-0.555 0-0.375-0.054-0.586-0.027-0.64 0.086-0.02 0.055-0.02 0.11 0 0.164l0.277 0.031c0.633 0.09 1.355 0.008 2.176-0.253z" inkscape:connector-curvature="0"/>
      <path id="path194" style="fill-rule:evenodd;fill:#46611f" d="m20.449 5.8c0.055-0.149 0.102-0.391 0.137-0.727l0.027-0.332c0.039-0.281 0.094-0.477 0.168-0.586l0.114-0.309c-0.188-0.019-0.364 0.04-0.532 0.168-0.129 0.129-0.195 0.317-0.195 0.559-0.055 0.316-0.063 0.566-0.027 0.75 0.054 0.316 0.148 0.477 0.277 0.477h0.031z" inkscape:connector-curvature="0"/>
      <path id="path196" style="fill-rule:evenodd;fill:#46611f" d="m19.414 6.245 0.336 0.027 0.082-0.082c-0.297-0.301-0.508-0.41-0.641-0.336-0.054 0.02-0.093 0.067-0.109 0.141-0.02 0.09-0.012 0.156 0.027 0.195 0.02 0.035 0.121 0.055 0.305 0.055z" inkscape:connector-curvature="0"/>
      <path id="path198" style="fill-rule:evenodd;fill:#3f581c" d="m19.027 3.401c0.035-0.113 0.063-0.289 0.082-0.531v-0.082c0.055-0.336 0.094-0.52 0.11-0.559l0.058-0.304c-0.148 0.035-0.25 0.093-0.308 0.168-0.02 0.164-0.035 0.285-0.055 0.359-0.035 0.277-0.008 0.547 0.082 0.809l0.031 0.14z" inkscape:connector-curvature="0"/>
      <path id="path200" style="fill-rule:evenodd;fill:#3f581c" d="m17.996 4.21h0.809v-0.086l0.027-0.082c-0.094-0.074-0.262-0.094-0.504-0.055-0.242 0.02-0.351 0.094-0.332 0.223z" inkscape:connector-curvature="0"/>
      <path id="path202" style="fill-rule:evenodd;fill:#1e2a0e" d="m16.488 0.335 1.617 0.222c0.352 0.075 0.653 0.157 0.891 0.25 0.41 0.149 0.699 0.282 0.867 0.391 0.446 0.281 0.871 0.727 1.282 1.34 0.148 0.183 0.296 0.437 0.445 0.75-0.317-0.93-0.77-1.66-1.367-2.199-0.817-0.727-1.793-1.09-2.926-1.09l-1.449 0.254c0.148 0.074 0.332 0.343 0.558 0.804 0.035-0.054 0.074-0.082 0.11-0.082 0.132-0.035 0.531 0.371 1.199 1.227-0.129-0.332-0.297-0.621-0.5-0.863l-0.727-1.004z" inkscape:connector-curvature="0"/>
    </g>
  </g>
<metadata><rdf:RDF><cc:Work><dc:format>image/svg+xml</dc:format><dc:type rdf:resource="http://purl.org/dc/dcmitype/StillImage"/><cc:license rdf:resource="http://creativecommons.org/licenses/publicdomain/"/><dc:publisher><cc:Agent rdf:about="http://openclipart.org/"><dc:title>Openclipart</dc:title></cc:Agent></dc:publisher></cc:Work><cc:License rdf:about="http://creativecommons.org/licenses/publicdomain/"><cc:permits rdf:resource="http://creativecommons.org/ns#Reproduction"/><cc:permits rdf:resource="http://creativecommons.org/ns#Distribution"/><cc:permits rdf:resource="http://creativecommons.org/ns#DerivativeWorks"/></cc:License></rdf:RDF></metadata></svg>
